<mxfile host="app.diagrams.net" modified="2024-01-30T10:34:00.375Z" agent="Mozilla/5.0 (Windows NT 10.0; Win64; x64) AppleWebKit/537.36 (KHTML, like Gecko) Chrome/120.0.0.0 Safari/537.36" etag="hq-RPgX9xcxcRDxrXo12" version="23.0.2" type="device">
  <diagram name="Halaman-1" id="rH8FoaDpnU3vajx_AagA">
    <mxGraphModel dx="1222" dy="1855" grid="1" gridSize="10" guides="1" tooltips="1" connect="1" arrows="1" fold="1" page="1" pageScale="1" pageWidth="827" pageHeight="1169" math="0" shadow="0">
      <root>
        <mxCell id="0" />
        <mxCell id="1" parent="0" />
        <mxCell id="MpdYMLYW30zKiDId-rU0-62" value="" style="rounded=0;whiteSpace=wrap;html=1;strokeColor=none;" vertex="1" parent="1">
          <mxGeometry x="130" y="-100" width="470" height="1520" as="geometry" />
        </mxCell>
        <mxCell id="MpdYMLYW30zKiDId-rU0-6" value="" style="edgeStyle=orthogonalEdgeStyle;rounded=0;orthogonalLoop=1;jettySize=auto;html=1;" edge="1" parent="1" source="MpdYMLYW30zKiDId-rU0-1" target="MpdYMLYW30zKiDId-rU0-5">
          <mxGeometry relative="1" as="geometry" />
        </mxCell>
        <mxCell id="MpdYMLYW30zKiDId-rU0-1" value="List menu ditampilkan" style="rounded=1;whiteSpace=wrap;html=1;" vertex="1" parent="1">
          <mxGeometry x="290" y="29" width="140" height="40" as="geometry" />
        </mxCell>
        <mxCell id="MpdYMLYW30zKiDId-rU0-15" value="" style="edgeStyle=orthogonalEdgeStyle;rounded=0;orthogonalLoop=1;jettySize=auto;html=1;" edge="1" parent="1" source="MpdYMLYW30zKiDId-rU0-5" target="MpdYMLYW30zKiDId-rU0-13">
          <mxGeometry relative="1" as="geometry" />
        </mxCell>
        <mxCell id="MpdYMLYW30zKiDId-rU0-5" value="User memilih menu" style="rounded=1;whiteSpace=wrap;html=1;" vertex="1" parent="1">
          <mxGeometry x="290" y="102" width="140" height="40" as="geometry" />
        </mxCell>
        <mxCell id="MpdYMLYW30zKiDId-rU0-21" value="" style="edgeStyle=orthogonalEdgeStyle;rounded=0;orthogonalLoop=1;jettySize=auto;html=1;" edge="1" parent="1" source="MpdYMLYW30zKiDId-rU0-7" target="MpdYMLYW30zKiDId-rU0-20">
          <mxGeometry relative="1" as="geometry" />
        </mxCell>
        <mxCell id="MpdYMLYW30zKiDId-rU0-30" value="Sudah" style="edgeLabel;html=1;align=center;verticalAlign=middle;resizable=0;points=[];" vertex="1" connectable="0" parent="MpdYMLYW30zKiDId-rU0-21">
          <mxGeometry x="-0.2927" y="-1" relative="1" as="geometry">
            <mxPoint as="offset" />
          </mxGeometry>
        </mxCell>
        <mxCell id="MpdYMLYW30zKiDId-rU0-44" style="edgeStyle=orthogonalEdgeStyle;rounded=0;orthogonalLoop=1;jettySize=auto;html=1;exitX=0;exitY=0.5;exitDx=0;exitDy=0;entryX=0;entryY=0.5;entryDx=0;entryDy=0;" edge="1" parent="1" source="MpdYMLYW30zKiDId-rU0-7" target="MpdYMLYW30zKiDId-rU0-5">
          <mxGeometry relative="1" as="geometry">
            <Array as="points">
              <mxPoint x="200" y="302" />
              <mxPoint x="200" y="122" />
            </Array>
          </mxGeometry>
        </mxCell>
        <mxCell id="MpdYMLYW30zKiDId-rU0-45" value="Belum" style="edgeLabel;html=1;align=center;verticalAlign=middle;resizable=0;points=[];" vertex="1" connectable="0" parent="MpdYMLYW30zKiDId-rU0-44">
          <mxGeometry x="-0.7516" relative="1" as="geometry">
            <mxPoint as="offset" />
          </mxGeometry>
        </mxCell>
        <mxCell id="MpdYMLYW30zKiDId-rU0-7" value="Apakah&lt;br&gt;sudah&lt;br&gt;sesuai?" style="rhombus;whiteSpace=wrap;html=1;" vertex="1" parent="1">
          <mxGeometry x="320" y="262" width="80" height="80" as="geometry" />
        </mxCell>
        <mxCell id="MpdYMLYW30zKiDId-rU0-16" value="" style="edgeStyle=orthogonalEdgeStyle;rounded=0;orthogonalLoop=1;jettySize=auto;html=1;" edge="1" parent="1" source="MpdYMLYW30zKiDId-rU0-13" target="MpdYMLYW30zKiDId-rU0-7">
          <mxGeometry relative="1" as="geometry" />
        </mxCell>
        <mxCell id="MpdYMLYW30zKiDId-rU0-13" value="Detail menu ditampilkan" style="rounded=1;whiteSpace=wrap;html=1;" vertex="1" parent="1">
          <mxGeometry x="290" y="178" width="140" height="40" as="geometry" />
        </mxCell>
        <mxCell id="MpdYMLYW30zKiDId-rU0-23" value="" style="edgeStyle=orthogonalEdgeStyle;rounded=0;orthogonalLoop=1;jettySize=auto;html=1;" edge="1" parent="1" source="MpdYMLYW30zKiDId-rU0-20" target="MpdYMLYW30zKiDId-rU0-22">
          <mxGeometry relative="1" as="geometry" />
        </mxCell>
        <mxCell id="MpdYMLYW30zKiDId-rU0-20" value="Input jumlah makanan yang dipesan" style="rounded=1;whiteSpace=wrap;html=1;" vertex="1" parent="1">
          <mxGeometry x="290" y="385" width="140" height="70" as="geometry" />
        </mxCell>
        <mxCell id="MpdYMLYW30zKiDId-rU0-32" value="" style="edgeStyle=orthogonalEdgeStyle;rounded=0;orthogonalLoop=1;jettySize=auto;html=1;" edge="1" parent="1" source="MpdYMLYW30zKiDId-rU0-22" target="MpdYMLYW30zKiDId-rU0-31">
          <mxGeometry relative="1" as="geometry" />
        </mxCell>
        <mxCell id="MpdYMLYW30zKiDId-rU0-22" value="Menambahkan jumlah makanan ke keranjang" style="rounded=1;whiteSpace=wrap;html=1;" vertex="1" parent="1">
          <mxGeometry x="290" y="493" width="140" height="70" as="geometry" />
        </mxCell>
        <mxCell id="MpdYMLYW30zKiDId-rU0-25" value="" style="edgeStyle=orthogonalEdgeStyle;rounded=0;orthogonalLoop=1;jettySize=auto;html=1;" edge="1" parent="1" target="MpdYMLYW30zKiDId-rU0-1">
          <mxGeometry relative="1" as="geometry">
            <mxPoint x="360.0000000000002" y="-2.2737367544323206e-13" as="sourcePoint" />
          </mxGeometry>
        </mxCell>
        <mxCell id="MpdYMLYW30zKiDId-rU0-33" style="edgeStyle=orthogonalEdgeStyle;rounded=0;orthogonalLoop=1;jettySize=auto;html=1;exitX=1;exitY=0.5;exitDx=0;exitDy=0;entryX=1;entryY=0.5;entryDx=0;entryDy=0;" edge="1" parent="1" source="MpdYMLYW30zKiDId-rU0-31" target="MpdYMLYW30zKiDId-rU0-5">
          <mxGeometry relative="1" as="geometry">
            <Array as="points">
              <mxPoint x="520" y="640" />
              <mxPoint x="520" y="122" />
            </Array>
          </mxGeometry>
        </mxCell>
        <mxCell id="MpdYMLYW30zKiDId-rU0-35" value="Melanjutkan&lt;br&gt;Pesanan" style="edgeLabel;html=1;align=center;verticalAlign=middle;resizable=0;points=[];" vertex="1" connectable="0" parent="MpdYMLYW30zKiDId-rU0-33">
          <mxGeometry x="-0.8494" relative="1" as="geometry">
            <mxPoint as="offset" />
          </mxGeometry>
        </mxCell>
        <mxCell id="MpdYMLYW30zKiDId-rU0-37" value="" style="edgeStyle=orthogonalEdgeStyle;rounded=0;orthogonalLoop=1;jettySize=auto;html=1;" edge="1" parent="1" source="MpdYMLYW30zKiDId-rU0-31" target="MpdYMLYW30zKiDId-rU0-36">
          <mxGeometry relative="1" as="geometry" />
        </mxCell>
        <mxCell id="MpdYMLYW30zKiDId-rU0-38" value="Menyelesaikan Pesanan" style="edgeLabel;html=1;align=center;verticalAlign=middle;resizable=0;points=[];" vertex="1" connectable="0" parent="MpdYMLYW30zKiDId-rU0-37">
          <mxGeometry x="-0.2929" relative="1" as="geometry">
            <mxPoint as="offset" />
          </mxGeometry>
        </mxCell>
        <mxCell id="MpdYMLYW30zKiDId-rU0-31" value="Lanjut/&lt;br&gt;Selesai" style="rhombus;whiteSpace=wrap;html=1;" vertex="1" parent="1">
          <mxGeometry x="320" y="600" width="80" height="80" as="geometry" />
        </mxCell>
        <mxCell id="MpdYMLYW30zKiDId-rU0-43" value="" style="edgeStyle=orthogonalEdgeStyle;rounded=0;orthogonalLoop=1;jettySize=auto;html=1;" edge="1" parent="1" source="MpdYMLYW30zKiDId-rU0-36" target="MpdYMLYW30zKiDId-rU0-42">
          <mxGeometry relative="1" as="geometry" />
        </mxCell>
        <mxCell id="MpdYMLYW30zKiDId-rU0-36" value="Aplikasi menampilkan ringkasan pesanan" style="rounded=1;whiteSpace=wrap;html=1;" vertex="1" parent="1">
          <mxGeometry x="290" y="720" width="140" height="70" as="geometry" />
        </mxCell>
        <mxCell id="MpdYMLYW30zKiDId-rU0-49" value="" style="edgeStyle=orthogonalEdgeStyle;rounded=0;orthogonalLoop=1;jettySize=auto;html=1;" edge="1" parent="1" source="MpdYMLYW30zKiDId-rU0-42" target="MpdYMLYW30zKiDId-rU0-47">
          <mxGeometry relative="1" as="geometry" />
        </mxCell>
        <mxCell id="MpdYMLYW30zKiDId-rU0-42" value="User memilih opsi pembayaran" style="rounded=1;whiteSpace=wrap;html=1;" vertex="1" parent="1">
          <mxGeometry x="290" y="824" width="140" height="56" as="geometry" />
        </mxCell>
        <mxCell id="MpdYMLYW30zKiDId-rU0-50" value="" style="edgeStyle=orthogonalEdgeStyle;rounded=0;orthogonalLoop=1;jettySize=auto;html=1;" edge="1" parent="1" source="MpdYMLYW30zKiDId-rU0-47" target="MpdYMLYW30zKiDId-rU0-48">
          <mxGeometry relative="1" as="geometry" />
        </mxCell>
        <mxCell id="MpdYMLYW30zKiDId-rU0-47" value="Aplikasi mengarahkan ke halaman pembayaran" style="rounded=1;whiteSpace=wrap;html=1;" vertex="1" parent="1">
          <mxGeometry x="290" y="919" width="140" height="60" as="geometry" />
        </mxCell>
        <mxCell id="MpdYMLYW30zKiDId-rU0-52" value="" style="edgeStyle=orthogonalEdgeStyle;rounded=0;orthogonalLoop=1;jettySize=auto;html=1;" edge="1" parent="1" source="MpdYMLYW30zKiDId-rU0-48" target="MpdYMLYW30zKiDId-rU0-51">
          <mxGeometry relative="1" as="geometry" />
        </mxCell>
        <mxCell id="MpdYMLYW30zKiDId-rU0-48" value="User input informasi pembayaran" style="rounded=1;whiteSpace=wrap;html=1;" vertex="1" parent="1">
          <mxGeometry x="290" y="1016" width="140" height="50" as="geometry" />
        </mxCell>
        <mxCell id="MpdYMLYW30zKiDId-rU0-54" value="" style="edgeStyle=orthogonalEdgeStyle;rounded=0;orthogonalLoop=1;jettySize=auto;html=1;" edge="1" parent="1" source="MpdYMLYW30zKiDId-rU0-51" target="MpdYMLYW30zKiDId-rU0-53">
          <mxGeometry relative="1" as="geometry" />
        </mxCell>
        <mxCell id="MpdYMLYW30zKiDId-rU0-51" value="Aplikasi memproses pembayaran" style="rounded=1;whiteSpace=wrap;html=1;" vertex="1" parent="1">
          <mxGeometry x="290" y="1106" width="140" height="50" as="geometry" />
        </mxCell>
        <mxCell id="MpdYMLYW30zKiDId-rU0-59" value="" style="edgeStyle=orthogonalEdgeStyle;rounded=0;orthogonalLoop=1;jettySize=auto;html=1;" edge="1" parent="1" source="MpdYMLYW30zKiDId-rU0-53">
          <mxGeometry relative="1" as="geometry">
            <mxPoint x="360.0000000000002" y="1298" as="targetPoint" />
          </mxGeometry>
        </mxCell>
        <mxCell id="MpdYMLYW30zKiDId-rU0-53" value="Aplikasi menampilkan konfirmasi pemesanan dan nomor pemesanan" style="rounded=1;whiteSpace=wrap;html=1;" vertex="1" parent="1">
          <mxGeometry x="290" y="1192" width="140" height="70" as="geometry" />
        </mxCell>
        <mxCell id="MpdYMLYW30zKiDId-rU0-60" value="Pemesanan selesai" style="ellipse;whiteSpace=wrap;html=1;" vertex="1" parent="1">
          <mxGeometry x="300" y="1300" width="120" height="60" as="geometry" />
        </mxCell>
        <mxCell id="MpdYMLYW30zKiDId-rU0-61" value="User membuka aplikasi" style="ellipse;whiteSpace=wrap;html=1;" vertex="1" parent="1">
          <mxGeometry x="300" y="-60" width="120" height="60" as="geometry" />
        </mxCell>
      </root>
    </mxGraphModel>
  </diagram>
</mxfile>
